<?xml version="1.0" standalone="no"?>
<!DOCTYPE svg PUBLIC "-//W3C//DTD SVG 20010904//EN"
 "http://www.w3.org/TR/2001/REC-SVG-20010904/DTD/svg10.dtd">
<svg version="1.0" xmlns="http://www.w3.org/2000/svg"
 width="300.000000pt" height="300.000000pt" viewBox="0 0 300.000000 300.000000"
 preserveAspectRatio="xMidYMid meet">
<g transform="translate(0.000000,300.000000) scale(0.100000,-0.100000)"
fill="#fff" stroke="none">
<path d="M1384 2235 c-45 -27 -61 -52 -44 -69 6 -6 17 -3 32 11 36 32 63 43
111 43 152 0 174 -239 25 -269 -24 -5 -33 -12 -33 -26 0 -21 33 -34 44 -17 9
13 51 25 51 14 0 -24 -43 -62 -70 -62 -29 0 -70 38 -70 65 0 7 9 24 21 39 15
19 30 26 54 26 34 0 75 36 75 67 0 16 -40 33 -78 33 -38 0 -263 -75 -274 -92
-5 -7 -6 -33 -3 -58 10 -76 13 -80 52 -80 l36 0 -20 23 c-28 30 -37 72 -19 90
8 8 52 26 98 40 120 37 138 41 138 28 0 -6 -11 -11 -24 -11 -15 0 -36 -13 -55
-35 -39 -45 -41 -91 -6 -133 32 -39 74 -48 114 -28 37 20 55 50 55 95 1 33 3
35 53 49 74 21 88 9 79 -72 -6 -62 -18 -79 -48 -70 -13 4 -19 -2 -24 -23 -10
-46 -73 -284 -89 -338 -14 -48 -14 -49 3 -29 9 11 24 31 34 45 16 24 16 24 32
4 14 -18 14 -63 -1 -87 -6 -12 -261 -10 -268 2 -17 27 -33 116 -23 127 19 23
35 14 52 -31 16 -42 46 -80 46 -59 0 5 -6 29 -14 54 -8 24 -28 98 -45 164 -52
200 -51 197 -64 187 -18 -15 -105 -18 -119 -4 -24 24 -54 3 -44 -30 3 -7 7
-25 10 -40 8 -33 46 -40 46 -9 0 17 27 37 37 27 3 -2 7 -23 10 -45 6 -40 6
-41 47 -42 35 -1 37 -2 16 -9 -43 -14 -88 -11 -98 5 -5 10 -15 13 -26 9 -15
-6 -17 -14 -12 -47 8 -50 13 -57 37 -57 12 0 19 7 19 20 0 13 7 20 19 20 14 0
20 -10 25 -40 6 -38 8 -40 44 -41 30 0 33 -2 17 -9 -11 -5 -37 -9 -57 -9 -29
-1 -38 3 -38 15 0 11 -5 14 -16 10 -9 -3 -18 -6 -20 -6 -8 0 -4 -49 6 -74 10
-27 40 -36 40 -12 0 18 31 30 41 15 4 -6 10 -34 14 -63 3 -28 11 -56 17 -63 8
-10 53 -13 169 -13 180 0 173 -3 184 87 l7 50 -33 9 c-32 10 -34 13 -32 52 3
79 43 110 43 33 0 -30 -5 -40 -22 -48 -21 -10 -20 -11 22 -23 25 -8 52 -22 61
-33 24 -29 46 -15 54 34 5 30 4 44 -6 50 -20 13 -29 11 -29 -6 0 -9 -9 -15
-24 -15 -23 0 -23 2 -15 38 5 20 9 39 9 42 0 4 -16 12 -36 19 -51 18 -34 26
22 10 29 -9 49 -21 52 -32 3 -12 12 -17 25 -15 29 4 45 75 22 97 -15 15 -17
14 -26 -1 -6 -10 -19 -18 -30 -18 -18 0 -19 4 -13 38 3 20 7 41 8 46 0 5 -14
14 -31 19 -18 5 -33 14 -33 18 0 12 4 12 61 -7 36 -12 49 -21 49 -35 0 -21 20
-25 38 -7 18 18 15 87 -3 95 -9 3 -21 -2 -28 -11 -8 -10 -17 -13 -26 -7 -12 8
-12 19 -2 71 15 75 3 100 -55 118 -37 11 -40 11 -61 -13 -29 -33 -37 -32 -18
5 36 70 3 173 -69 215 -58 34 -126 34 -182 0z m-64 -450 c0 -53 -6 -57 -25
-12 -9 22 -10 36 -3 45 19 23 28 12 28 -33z m375 -64 c-4 -18 -13 -31 -22 -31
-11 0 -13 7 -8 33 10 42 15 51 27 39 6 -6 7 -24 3 -41z m-345 -67 c14 -36 13
-66 -2 -62 -18 6 -41 56 -34 74 8 22 25 17 36 -12z"/>
<path d="M1353 1834 c14 -45 85 -312 92 -341 10 -48 25 -50 25 -5 0 43 -61
276 -85 321 -18 36 -41 53 -32 25z"/>
<path d="M1628 1833 c-21 -25 -34 -61 -68 -188 -16 -60 -30 -130 -30 -155 1
-61 12 -39 43 85 15 55 37 138 51 185 13 47 23 86 22 88 -2 1 -10 -6 -18 -15z"/>
<path d="M1675 1222 c-55 -19 -75 -50 -75 -114 0 -76 43 -108 131 -100 l39 4
0 59 0 59 -40 0 c-33 0 -40 -3 -40 -20 0 -13 7 -20 20 -20 15 0 20 -7 20 -25
0 -19 -5 -25 -23 -25 -35 0 -57 21 -63 62 -5 31 -2 41 20 63 23 23 33 26 62
21 26 -5 36 -3 40 9 4 9 5 18 3 20 -9 8 -75 13 -94 7z"/>
<path d="M1948 1223 l-58 -4 0 -104 0 -105 60 0 c55 0 60 2 60 21 0 20 -4 21
-40 15 -39 -6 -40 -6 -40 24 0 28 2 30 40 30 33 0 40 3 40 20 0 17 -7 20 -40
20 -37 0 -40 2 -40 26 0 25 2 26 40 20 38 -6 40 -5 40 19 0 14 -1 24 -2 23 -2
-1 -29 -3 -60 -5z"/>
<path d="M765 1115 c0 -102 1 -105 23 -105 19 0 22 5 22 40 0 29 4 40 15 40 8
0 24 -18 35 -40 16 -30 26 -40 45 -40 31 0 31 3 0 44 -29 38 -31 49 -10 66 21
17 19 63 -3 83 -13 12 -36 17 -73 17 l-54 0 0 -105z m90 61 c24 -17 14 -42
-19 -48 -24 -5 -26 -2 -26 28 0 37 14 43 45 20z"/>
<path d="M1038 1114 l-38 -105 28 3 c19 2 28 9 30 26 3 19 9 22 47 22 38 0 44
-3 47 -22 2 -16 11 -24 29 -26 l27 -3 -37 105 c-35 103 -37 106 -66 106 -29 0
-31 -3 -67 -106z m86 11 c6 -27 4 -30 -19 -30 -28 0 -29 4 -14 60 12 43 18 37
33 -30z"/>
<path d="M1300 1115 c0 -101 1 -105 21 -105 21 0 22 3 16 81 -3 44 -2 78 1 74
4 -4 25 -39 47 -78 36 -64 45 -72 73 -75 l32 -3 0 105 c0 99 -1 106 -20 106
-18 0 -20 -7 -20 -82 l0 -83 -47 83 c-41 73 -49 82 -75 82 l-28 0 0 -105z"/>
<path d="M2120 1115 l0 -105 65 0 c59 0 65 2 65 21 0 18 -5 20 -42 17 l-43 -3
0 88 c0 84 0 87 -22 87 -22 0 -23 -2 -23 -105z"/>
<path d="M1185 875 c-27 -26 -31 -46 -15 -75 15 -28 45 -42 75 -34 21 5 25 12
25 40 0 27 -4 34 -19 34 -11 0 -23 -4 -26 -10 -3 -5 1 -10 9 -10 9 0 16 -9 16
-20 0 -24 -32 -27 -54 -4 -32 31 -7 87 38 83 34 -2 42 1 26 11 -25 16 -50 11
-75 -15z"/>
<path d="M1560 876 c0 -8 -6 -17 -12 -19 -10 -4 -10 -6 0 -6 7 -1 12 -16 12
-41 0 -27 5 -43 15 -47 23 -8 33 7 12 18 -20 12 -23 66 -4 71 9 2 8 8 -5 21
-14 13 -18 14 -18 3z"/>
<path d="M1397 863 c-4 -3 -7 -24 -7 -45 0 -31 -3 -38 -20 -38 -17 0 -20 7
-20 40 0 22 -4 40 -10 40 -5 0 -10 -18 -10 -40 0 -44 21 -63 58 -53 19 5 22
13 22 54 0 50 -1 54 -13 42z"/>
<path d="M1673 863 c-21 -8 -15 -20 8 -19 33 1 35 -22 2 -26 -20 -2 -29 -9
-31 -24 -4 -25 14 -34 52 -27 25 5 26 9 23 45 -5 47 -23 64 -54 51z m35 -65
c-7 -19 -38 -22 -38 -4 0 10 9 16 21 16 12 0 19 -5 17 -12z"/>
<path d="M1815 860 c-4 -6 -11 -8 -16 -5 -5 4 -9 -16 -9 -45 0 -32 4 -49 10
-45 6 3 10 22 10 42 0 26 5 36 20 40 11 3 17 9 14 14 -7 12 -21 11 -29 -1z"/>
<path d="M1470 816 c0 -25 5 -48 10 -51 6 -4 10 13 10 44 0 28 -4 51 -10 51
-5 0 -10 -20 -10 -44z"/>
</g>
</svg>
